<svg width="24" height="24" viewBox="0 0 24 24" fill="none" xmlns="http://www.w3.org/2000/svg">
<path d="M10.293 1.07159C11.3437 0.441183 12.6573 0.441183 13.708 1.07159L20.6426 5.06378C21.6933 5.69419 22.3232 6.79788 22.3232 8.00616V15.9915C22.3232 17.1996 21.6931 18.355 20.6426 18.9329L13.708 22.9261C13.2352 23.2413 12.6568 23.3987 12.0264 23.3987C11.4487 23.3987 10.8184 23.2412 10.3457 22.9261L3.3584 18.9857C2.30797 18.3553 1.67789 17.2523 1.67773 16.0443V8.00616C1.67773 6.79789 2.30773 5.64167 3.3584 5.06378L10.293 1.07159ZM12.9727 2.38507C12.3948 2.06986 11.6591 2.06986 11.1338 2.38507L4.14648 6.42999C3.56868 6.74522 3.2537 7.37579 3.20117 8.00616V16.0443C3.20134 16.6744 3.56891 17.3043 4.14648 17.6194L11.0811 21.6126C11.6589 21.9278 12.3421 21.9278 12.9199 21.6126L19.9072 17.5677C20.485 17.2525 20.7999 16.6218 20.8525 15.9915V8.00616C20.8525 7.37583 20.485 6.74524 19.9072 6.42999L12.9727 2.38507ZM16.2305 8.0589C16.5981 7.84884 17.0711 7.95327 17.2812 8.37335C17.4913 8.74096 17.386 9.21388 17.0186 9.42413L12.8154 11.8392V16.7269C12.8154 17.1471 12.4476 17.4622 12.0273 17.4622C11.6071 17.4621 11.2393 17.0944 11.2393 16.6741V11.8919L7.03613 9.47687C6.66839 9.26673 6.51057 8.79383 6.7207 8.42609C6.93082 8.05869 7.4032 7.90098 7.82324 8.11066L12.0234 10.5237L16.2305 8.0589Z" fill="white"/>
<path d="M10.293 1.07159L10.3429 1.15827L10.3444 1.15734L10.293 1.07159ZM13.708 1.07159L13.6565 1.15736L13.6581 1.15826L13.708 1.07159ZM20.6426 5.06378L20.694 4.97802L20.6925 4.97712L20.6426 5.06378ZM22.3232 15.9915L22.4232 15.9915V15.9915H22.3232ZM20.6426 18.9329L20.5944 18.8453L20.5927 18.8463L20.6426 18.9329ZM13.708 22.9261L13.658 22.8392L13.6525 22.8429L13.708 22.9261ZM12.0264 23.3987L12.0264 23.4987H12.0264V23.3987ZM10.3457 22.9261L10.4013 22.8426L10.3948 22.839L10.3457 22.9261ZM3.3584 18.9857L3.30692 19.0714L3.30928 19.0728L3.3584 18.9857ZM1.67773 16.0443L1.57773 16.0443L1.57773 16.0443L1.67773 16.0443ZM3.3584 5.06378L3.4066 5.15142L3.40829 5.15045L3.3584 5.06378ZM12.9727 2.38507L13.0231 2.29866L13.0205 2.29728L12.9727 2.38507ZM11.1338 2.38507L11.1839 2.47163L11.1852 2.47082L11.1338 2.38507ZM4.14648 6.42999L4.19439 6.51781L4.19658 6.51654L4.14648 6.42999ZM3.20117 8.00616L3.10117 7.99783V8.00616H3.20117ZM3.20117 16.0443L3.10117 16.0443L3.10117 16.0443L3.20117 16.0443ZM4.14648 17.6194L4.1964 17.5328L4.19439 17.5317L4.14648 17.6194ZM11.0811 21.6126L11.0311 21.6993L11.0332 21.7004L11.0811 21.6126ZM12.9199 21.6126L12.9678 21.7004L12.97 21.6992L12.9199 21.6126ZM19.9072 17.5677L19.8593 17.4799L19.8571 17.4811L19.9072 17.5677ZM20.8525 15.9915L20.9525 15.9999V15.9915H20.8525ZM19.9072 6.42999L19.8568 6.51641L19.8593 6.51778L19.9072 6.42999ZM16.2305 8.0589L16.1809 7.97207L16.1799 7.97262L16.2305 8.0589ZM17.2812 8.37335L17.1917 8.41817L17.1944 8.42297L17.2812 8.37335ZM17.0186 9.42413L16.9689 9.33734L16.9687 9.33743L17.0186 9.42413ZM12.8154 11.8392L12.7656 11.7525L12.7154 11.7813V11.8392H12.8154ZM12.8154 16.7269L12.9154 16.7269V16.7269H12.8154ZM12.0273 17.4622L12.0273 17.5622H12.0273V17.4622ZM11.2393 11.8919H11.3393V11.834L11.2891 11.8052L11.2393 11.8919ZM7.03613 9.47687L7.08595 9.39016L7.08575 9.39004L7.03613 9.47687ZM6.7207 8.42609L6.6339 8.37644L6.63388 8.37647L6.7207 8.42609ZM7.82324 8.11066L7.87314 8.0238L7.8679 8.02118L7.82324 8.11066ZM12.0234 10.5237L11.9736 10.6105L12.0239 10.6394L12.074 10.61L12.0234 10.5237ZM10.293 1.07159L10.3444 1.15734C11.3634 0.545933 12.6375 0.545933 13.6566 1.15734L13.708 1.07159L13.7595 0.985845C12.6771 0.336432 11.3239 0.336432 10.2415 0.985845L10.293 1.07159ZM13.708 1.07159L13.6581 1.15826L20.5927 5.15045L20.6426 5.06378L20.6925 4.97712L13.7579 0.98493L13.708 1.07159ZM20.6426 5.06378L20.5911 5.14953C21.6122 5.76216 22.2232 6.83357 22.2232 8.00616H22.3232H22.4232C22.4232 6.76218 21.7743 5.62622 20.694 4.97803L20.6426 5.06378ZM22.3232 8.00616H22.2232V15.9915H22.3232H22.4232V8.00616H22.3232ZM22.3232 15.9915L22.2232 15.9915C22.2232 17.1664 21.6102 18.2865 20.5944 18.8453L20.6426 18.9329L20.6908 19.0205C21.7759 18.4236 22.4232 17.2329 22.4232 15.9915L22.3232 15.9915ZM20.6426 18.9329L20.5927 18.8463L13.6581 22.8394L13.708 22.9261L13.7579 23.0127L20.6925 19.0196L20.6426 18.9329ZM13.708 22.9261L13.6525 22.8429C13.1986 23.1455 12.6402 23.2987 12.0264 23.2987V23.3987V23.4987C12.6733 23.4987 13.2718 23.3371 13.7635 23.0093L13.708 22.9261ZM12.0264 23.3987L12.0264 23.2987C11.4644 23.2987 10.8543 23.1449 10.4012 22.8429L10.3457 22.9261L10.2902 23.0093C10.7824 23.3374 11.433 23.4987 12.0264 23.4987L12.0264 23.3987ZM10.3457 22.9261L10.3948 22.839L3.40752 18.8986L3.3584 18.9857L3.30928 19.0728L10.2966 23.0132L10.3457 22.9261ZM3.3584 18.9857L3.40985 18.8999C2.38902 18.2873 1.77788 17.2166 1.77773 16.0442L1.67773 16.0443L1.57773 16.0443C1.57789 17.288 2.22691 18.4233 3.30694 19.0714L3.3584 18.9857ZM1.67773 16.0443H1.77773V8.00616H1.67773H1.57773V16.0443H1.67773ZM1.67773 8.00616H1.77773C1.77773 6.83111 2.39063 5.7102 3.40659 5.1514L3.3584 5.06378L3.31021 4.97616C2.22484 5.57313 1.57773 6.76467 1.57773 8.00616H1.67773ZM3.3584 5.06378L3.40829 5.15045L10.3429 1.15826L10.293 1.07159L10.2431 0.98493L3.30851 4.97712L3.3584 5.06378ZM12.9727 2.38507L13.0205 2.29728C12.4144 1.96663 11.6407 1.96428 11.0823 2.29932L11.1338 2.38507L11.1852 2.47082C11.6775 2.17545 12.3752 2.1731 12.9248 2.47286L12.9727 2.38507ZM11.1338 2.38507L11.0837 2.29853L4.09638 6.34345L4.14648 6.42999L4.19658 6.51654L11.1839 2.47162L11.1338 2.38507ZM4.14648 6.42999L4.09859 6.34221C3.48393 6.67754 3.15607 7.34326 3.10152 7.99786L3.20117 8.00616L3.30083 8.01447C3.35134 7.40833 3.65343 6.8129 4.19438 6.51778L4.14648 6.42999ZM3.20117 8.00616H3.10117V16.0443H3.20117H3.30117V8.00616H3.20117ZM3.20117 16.0443L3.10117 16.0443C3.10135 16.7112 3.48907 17.3746 4.09858 17.7072L4.14648 17.6194L4.19439 17.5317C3.64875 17.2339 3.30133 16.6376 3.30117 16.0442L3.20117 16.0443ZM4.14648 17.6194L4.09658 17.7061L11.0312 21.6993L11.0811 21.6126L11.131 21.526L4.19639 17.5328L4.14648 17.6194ZM11.0811 21.6126L11.0332 21.7004C11.6409 22.0319 12.3601 22.0319 12.9678 21.7004L12.9199 21.6126L12.872 21.5248C12.324 21.8237 11.677 21.8237 11.1289 21.5248L11.0811 21.6126ZM12.9199 21.6126L12.97 21.6992L19.9573 17.6542L19.9072 17.5677L19.8571 17.4811L12.8698 21.5261L12.9199 21.6126ZM19.9072 17.5677L19.9551 17.6555C20.5697 17.3202 20.8976 16.6544 20.9522 15.9998L20.8525 15.9915L20.7529 15.9832C20.7023 16.5893 20.4002 17.1848 19.8593 17.4799L19.9072 17.5677ZM20.8525 15.9915H20.9525V8.00616H20.8525H20.7525V15.9915H20.8525ZM20.8525 8.00616H20.9525C20.9525 7.33908 20.5649 6.6749 19.9551 6.34221L19.9072 6.42999L19.8593 6.51778C20.4051 6.81557 20.7525 7.41257 20.7525 8.00616H20.8525ZM19.9072 6.42999L19.9576 6.34361L13.023 2.29869L12.9727 2.38507L12.9223 2.47145L19.8568 6.51637L19.9072 6.42999ZM16.2305 8.0589L16.2801 8.14573C16.6023 7.96164 17.0095 8.05374 17.1918 8.4181L17.2812 8.37335L17.3707 8.32861C17.1326 7.85281 16.594 7.73604 16.1809 7.97207L16.2305 8.0589ZM17.2812 8.37335L17.1944 8.42297C17.3798 8.74745 17.2837 9.15718 16.9689 9.33734L17.0186 9.42413L17.0682 9.51093C17.4882 9.27059 17.6028 8.73447 17.3681 8.32374L17.2812 8.37335ZM17.0186 9.42413L16.9687 9.33743L12.7656 11.7525L12.8154 11.8392L12.8652 11.9259L17.0684 9.51084L17.0186 9.42413ZM12.8154 11.8392H12.7154V16.7269H12.8154H12.9154V11.8392H12.8154ZM12.8154 16.7269L12.7154 16.7269C12.7154 17.0831 12.4016 17.3622 12.0273 17.3622V17.4622V17.5622C12.4936 17.5622 12.9154 17.2111 12.9154 16.7269L12.8154 16.7269ZM12.0273 17.4622L12.0274 17.3622C11.6623 17.3622 11.3393 17.0391 11.3393 16.6741H11.2393H11.1393C11.1393 17.1496 11.5519 17.5621 12.0273 17.5622L12.0273 17.4622ZM11.2393 16.6741H11.3393V11.8919H11.2393H11.1393V16.6741H11.2393ZM11.2393 11.8919L11.2891 11.8052L7.08595 9.39016L7.03613 9.47687L6.98631 9.56357L11.1894 11.9786L11.2393 11.8919ZM7.03613 9.47687L7.08575 9.39004C6.76015 9.20399 6.628 8.78988 6.80753 8.4757L6.7207 8.42609L6.63388 8.37647C6.39313 8.79778 6.57664 9.32948 6.98652 9.56369L7.03613 9.47687ZM6.7207 8.42609L6.80751 8.47573C6.99109 8.15474 7.40561 8.01395 7.77858 8.20013L7.82324 8.11066L7.8679 8.02118C7.40079 7.78801 6.87055 7.96264 6.6339 8.37644L6.7207 8.42609ZM7.82324 8.11066L7.77343 8.19737L11.9736 10.6105L12.0234 10.5237L12.0733 10.437L7.87306 8.02395L7.82324 8.11066ZM12.0234 10.5237L12.074 10.61L16.281 8.14518L16.2305 8.0589L16.1799 7.97262L11.9729 10.4375L12.0234 10.5237Z" fill="white"/>
</svg>
